<svg width="168" height="40" viewBox="0 0 168 40" fill="none" xmlns="http://www.w3.org/2000/svg">
<path fill-rule="evenodd" clip-rule="evenodd" d="M7.5 10C7.5 8.61929 8.61929 7.5 10 7.5H13.75C15.1307 7.5 16.25 8.61929 16.25 10V30C16.25 31.3807 15.1307 32.5 13.75 32.5H10C8.61929 32.5 7.5 31.3807 7.5 30V10ZM13.75 10H10V30H13.75V10Z" fill="#FACC15"/>
<path fill-rule="evenodd" clip-rule="evenodd" d="M23.75 10C23.75 8.61929 24.8693 7.5 26.25 7.5H30C31.3807 7.5 32.5 8.61929 32.5 10V30C32.5 31.3807 31.3807 32.5 30 32.5H26.25C24.8693 32.5 23.75 31.3807 23.75 30V10ZM30 10H26.25V30H30V10Z" fill="#FACC15"/>
<path fill-rule="evenodd" clip-rule="evenodd" d="M30 12.5C30 11.8096 30.5596 11.25 31.25 11.25H35C35.663 11.25 36.2989 11.5134 36.7678 11.9822C37.2366 12.4511 37.5 13.087 37.5 13.75V26.25C37.5 26.913 37.2366 27.5489 36.7678 28.0178C36.2989 28.4866 35.663 28.75 35 28.75H31.25C30.5596 28.75 30 28.1904 30 27.5C30 26.8096 30.5596 26.25 31.25 26.25H35L35 13.75L31.25 13.75C30.5596 13.75 30 13.1904 30 12.5Z" fill="#FACC15"/>
<path fill-rule="evenodd" clip-rule="evenodd" d="M3.23223 11.9822C3.70107 11.5134 4.33696 11.25 5 11.25H8.75C9.44036 11.25 10 11.8096 10 12.5C10 13.1904 9.44036 13.75 8.75 13.75L5 13.75V26.25H8.75C9.44036 26.25 10 26.8096 10 27.5C10 28.1904 9.44036 28.75 8.75 28.75H5C4.33696 28.75 3.70108 28.4866 3.23223 28.0178C2.76339 27.5489 2.5 26.913 2.5 26.25V13.75C2.5 13.087 2.76339 12.4511 3.23223 11.9822Z" fill="#FACC15"/>
<path fill-rule="evenodd" clip-rule="evenodd" d="M13.75 20C13.75 19.3096 14.3096 18.75 15 18.75H25C25.6904 18.75 26.25 19.3096 26.25 20C26.25 20.6904 25.6904 21.25 25 21.25H15C14.3096 21.25 13.75 20.6904 13.75 20Z" fill="#FACC15"/>
<path fill-rule="evenodd" clip-rule="evenodd" d="M35 20C35 19.3096 35.5596 18.75 36.25 18.75H38.75C39.4404 18.75 40 19.3096 40 20C40 20.6904 39.4404 21.25 38.75 21.25H36.25C35.5596 21.25 35 20.6904 35 20Z" fill="#FACC15"/>
<path fill-rule="evenodd" clip-rule="evenodd" d="M0 20C0 19.3096 0.559644 18.75 1.25 18.75H3.75C4.44036 18.75 5 19.3096 5 20C5 20.6904 4.44036 21.25 3.75 21.25H1.25C0.559644 21.25 0 20.6904 0 20Z" fill="#FACC15"/>
<path d="M69.7363 19.0957V26.9844C69.4264 27.3581 68.9479 27.7637 68.3008 28.2012C67.6536 28.6296 66.8197 28.9987 65.7988 29.3086C64.778 29.6185 63.543 29.7734 62.0938 29.7734C60.8086 29.7734 59.6374 29.5638 58.5801 29.1445C57.5228 28.7161 56.6113 28.0918 55.8457 27.2715C55.0892 26.4512 54.5059 25.4486 54.0957 24.2637C53.6855 23.0697 53.4805 21.707 53.4805 20.1758V18.9316C53.4805 17.4004 53.6764 16.0378 54.0684 14.8438C54.4694 13.6497 55.0391 12.6426 55.7773 11.8223C56.5156 11.002 57.3952 10.3776 58.416 9.94922C59.4368 9.52083 60.5716 9.30664 61.8203 9.30664C63.5521 9.30664 64.974 9.58919 66.0859 10.1543C67.1979 10.7103 68.0456 11.485 68.6289 12.4785C69.2214 13.4629 69.5859 14.5931 69.7227 15.8691H65.7441C65.6439 15.1947 65.4525 14.6068 65.1699 14.1055C64.8874 13.6042 64.4818 13.2122 63.9531 12.9297C63.4336 12.6471 62.7591 12.5059 61.9297 12.5059C61.2461 12.5059 60.6354 12.6471 60.0977 12.9297C59.569 13.2031 59.1224 13.6087 58.7578 14.1465C58.3932 14.6842 58.1152 15.3496 57.9238 16.1426C57.7324 16.9355 57.6367 17.8561 57.6367 18.9043V20.1758C57.6367 21.2148 57.737 22.1354 57.9375 22.9375C58.138 23.7305 58.4342 24.4004 58.8262 24.9473C59.2272 25.485 59.7194 25.8906 60.3027 26.1641C60.8861 26.4375 61.5651 26.5742 62.3398 26.5742C62.987 26.5742 63.5247 26.5195 63.9531 26.4102C64.3906 26.3008 64.7415 26.1686 65.0059 26.0137C65.2793 25.8496 65.4889 25.6947 65.6348 25.5488V22.0215H61.8887V19.0957H69.7363ZM77.1875 27.832L81.1113 14.707H85.3359L79.3887 31.7285C79.2611 32.1022 79.0879 32.5033 78.8691 32.9316C78.6595 33.36 78.3724 33.7656 78.0078 34.1484C77.6523 34.5404 77.2012 34.8594 76.6543 35.1055C76.1165 35.3516 75.4557 35.4746 74.6719 35.4746C74.2982 35.4746 73.9928 35.4518 73.7559 35.4062C73.5189 35.3607 73.2363 35.2969 72.9082 35.2148V32.3301C73.0085 32.3301 73.1133 32.3301 73.2227 32.3301C73.332 32.3392 73.4368 32.3438 73.5371 32.3438C74.0566 32.3438 74.4805 32.2845 74.8086 32.166C75.1367 32.0475 75.401 31.8652 75.6016 31.6191C75.8021 31.3822 75.9616 31.0723 76.0801 30.6895L77.1875 27.832ZM75.5469 14.707L78.7598 25.4258L79.3203 29.5957L76.6406 29.8828L71.3223 14.707H75.5469ZM90.8457 17.7695V29.5H86.8945V14.707H90.5996L90.8457 17.7695ZM90.2988 21.584H89.2051C89.2051 20.554 89.3281 19.6061 89.5742 18.7402C89.8294 17.8652 90.1986 17.1087 90.6816 16.4707C91.1738 15.8236 91.7799 15.3223 92.5 14.9668C93.2201 14.6113 94.054 14.4336 95.002 14.4336C95.6582 14.4336 96.2598 14.5339 96.8066 14.7344C97.3535 14.9258 97.8229 15.2311 98.2148 15.6504C98.6159 16.0605 98.9258 16.5983 99.1445 17.2637C99.3633 17.9199 99.4727 18.7083 99.4727 19.6289V29.5H95.5352V20.0664C95.5352 19.3919 95.444 18.8724 95.2617 18.5078C95.0794 18.1432 94.8197 17.888 94.4824 17.7422C94.1543 17.5964 93.7578 17.5234 93.293 17.5234C92.7826 17.5234 92.3359 17.6283 91.9531 17.8379C91.5794 18.0475 91.2695 18.3392 91.0234 18.7129C90.7773 19.0775 90.5951 19.5059 90.4766 19.998C90.3581 20.4902 90.2988 21.0189 90.2988 21.584ZM99.1035 21.1328L97.6953 21.3105C97.6953 20.3444 97.8138 19.4466 98.0508 18.6172C98.2969 17.7878 98.6569 17.0586 99.1309 16.4297C99.6139 15.8008 100.211 15.3132 100.922 14.9668C101.633 14.6113 102.453 14.4336 103.383 14.4336C104.094 14.4336 104.741 14.5384 105.324 14.748C105.908 14.9486 106.404 15.2721 106.814 15.7188C107.234 16.1562 107.553 16.7305 107.771 17.4414C107.999 18.1523 108.113 19.0228 108.113 20.0527V29.5H104.162V20.0527C104.162 19.3691 104.071 18.8496 103.889 18.4941C103.715 18.1296 103.46 17.8789 103.123 17.7422C102.795 17.5964 102.403 17.5234 101.947 17.5234C101.473 17.5234 101.059 17.6191 100.703 17.8105C100.348 17.9928 100.051 18.248 99.8145 18.5762C99.5775 18.9043 99.3997 19.2871 99.2812 19.7246C99.1628 20.153 99.1035 20.6224 99.1035 21.1328ZM131.656 17.7012V20.9004H121.266V17.7012H131.656ZM122.482 9.59375V29.5H118.381V9.59375H122.482ZM134.582 9.59375V29.5H130.494V9.59375H134.582ZM146.654 25.959V14.707H150.592V29.5H146.887L146.654 25.959ZM147.092 22.9238L148.254 22.8965C148.254 23.8809 148.14 24.7969 147.912 25.6445C147.684 26.4831 147.342 27.2122 146.887 27.832C146.431 28.4427 145.857 28.9212 145.164 29.2676C144.471 29.6048 143.656 29.7734 142.717 29.7734C141.997 29.7734 141.331 29.6732 140.721 29.4727C140.119 29.263 139.6 28.9395 139.162 28.502C138.734 28.0553 138.396 27.4857 138.15 26.793C137.913 26.0911 137.795 25.248 137.795 24.2637V14.707H141.732V24.291C141.732 24.7285 141.783 25.0977 141.883 25.3984C141.992 25.6992 142.143 25.9453 142.334 26.1367C142.525 26.3281 142.749 26.4648 143.004 26.5469C143.268 26.6289 143.56 26.6699 143.879 26.6699C144.69 26.6699 145.328 26.5059 145.793 26.1777C146.267 25.8496 146.6 25.403 146.791 24.8379C146.992 24.2637 147.092 23.6257 147.092 22.9238ZM153.6 8.5H157.537V26.1094L157.141 29.5H153.6V8.5ZM166.902 21.9531V22.2402C166.902 23.3431 166.784 24.3548 166.547 25.2754C166.319 26.196 165.964 26.9935 165.48 27.668C164.997 28.3333 164.396 28.8529 163.676 29.2266C162.965 29.5911 162.126 29.7734 161.16 29.7734C160.258 29.7734 159.474 29.5911 158.809 29.2266C158.152 28.862 157.601 28.347 157.154 27.6816C156.708 27.0163 156.348 26.237 156.074 25.3438C155.801 24.4505 155.596 23.4753 155.459 22.418V21.7891C155.596 20.7318 155.801 19.7565 156.074 18.8633C156.348 17.9701 156.708 17.1908 157.154 16.5254C157.601 15.86 158.152 15.3451 158.809 14.9805C159.465 14.6159 160.24 14.4336 161.133 14.4336C162.108 14.4336 162.956 14.6204 163.676 14.9941C164.405 15.3587 165.007 15.8783 165.48 16.5527C165.964 17.2181 166.319 18.0111 166.547 18.9316C166.784 19.8431 166.902 20.8503 166.902 21.9531ZM162.965 22.2402V21.9531C162.965 21.3516 162.919 20.7865 162.828 20.2578C162.746 19.7201 162.6 19.2507 162.391 18.8496C162.181 18.4395 161.894 18.1159 161.529 17.8789C161.174 17.6419 160.714 17.5234 160.148 17.5234C159.611 17.5234 159.155 17.6146 158.781 17.7969C158.408 17.9792 158.098 18.2344 157.852 18.5625C157.615 18.8906 157.437 19.2826 157.318 19.7383C157.2 20.1849 157.127 20.6771 157.1 21.2148V23.0059C157.127 23.7259 157.245 24.3639 157.455 24.9199C157.674 25.4668 158.002 25.8997 158.439 26.2188C158.886 26.5286 159.465 26.6836 160.176 26.6836C160.732 26.6836 161.192 26.5742 161.557 26.3555C161.921 26.1367 162.204 25.8268 162.404 25.4258C162.614 25.0247 162.76 24.5553 162.842 24.0176C162.924 23.4707 162.965 22.8783 162.965 22.2402Z" fill="white"/>
</svg>
